<mxfile host="Electron" modified="2024-07-19T18:10:42.454Z" agent="Mozilla/5.0 (Windows NT 10.0; Win64; x64) AppleWebKit/537.36 (KHTML, like Gecko) draw.io/24.6.4 Chrome/124.0.6367.207 Electron/30.0.6 Safari/537.36" etag="P9MBk_DdYJouDll1kXJq" version="24.6.4" type="device">
  <diagram id="C5RBs43oDa-KdzZeNtuy" name="Page-1">
    <mxGraphModel dx="3088" dy="844" grid="1" gridSize="10" guides="1" tooltips="1" connect="1" arrows="1" fold="1" page="1" pageScale="1" pageWidth="827" pageHeight="1169" math="0" shadow="0">
      <root>
        <mxCell id="WIyWlLk6GJQsqaUBKTNV-0" />
        <mxCell id="WIyWlLk6GJQsqaUBKTNV-1" parent="WIyWlLk6GJQsqaUBKTNV-0" />
        <mxCell id="WIyWlLk6GJQsqaUBKTNV-2" value="" style="rounded=0;html=1;jettySize=auto;orthogonalLoop=1;fontSize=11;endArrow=block;endFill=0;endSize=8;strokeWidth=1;shadow=0;labelBackgroundColor=none;edgeStyle=orthogonalEdgeStyle;" parent="WIyWlLk6GJQsqaUBKTNV-1" source="WIyWlLk6GJQsqaUBKTNV-3" target="WIyWlLk6GJQsqaUBKTNV-6" edge="1">
          <mxGeometry relative="1" as="geometry" />
        </mxCell>
        <mxCell id="WIyWlLk6GJQsqaUBKTNV-3" value="Start" style="rounded=1;whiteSpace=wrap;html=1;fontSize=12;glass=0;strokeWidth=1;shadow=0;" parent="WIyWlLk6GJQsqaUBKTNV-1" vertex="1">
          <mxGeometry x="-600" y="190" width="120" height="40" as="geometry" />
        </mxCell>
        <mxCell id="WIyWlLk6GJQsqaUBKTNV-5" value="No" style="edgeStyle=orthogonalEdgeStyle;rounded=0;html=1;jettySize=auto;orthogonalLoop=1;fontSize=11;endArrow=block;endFill=0;endSize=8;strokeWidth=1;shadow=0;labelBackgroundColor=none;entryX=1;entryY=0.5;entryDx=0;entryDy=0;exitX=1;exitY=0.5;exitDx=0;exitDy=0;" parent="WIyWlLk6GJQsqaUBKTNV-1" source="WIyWlLk6GJQsqaUBKTNV-6" target="MfT9FiDQWY_UEhDtYRqd-1" edge="1">
          <mxGeometry y="10" relative="1" as="geometry">
            <mxPoint as="offset" />
            <mxPoint x="-820" y="330" as="sourcePoint" />
            <mxPoint x="-795" y="1160" as="targetPoint" />
            <Array as="points">
              <mxPoint x="-485" y="320" />
              <mxPoint x="840" y="320" />
              <mxPoint x="840" y="1710" />
            </Array>
          </mxGeometry>
        </mxCell>
        <mxCell id="WIyWlLk6GJQsqaUBKTNV-6" value="Do you wanna start game?" style="rhombus;whiteSpace=wrap;html=1;shadow=0;fontFamily=Helvetica;fontSize=12;align=center;strokeWidth=1;spacing=6;spacingTop=-4;" parent="WIyWlLk6GJQsqaUBKTNV-1" vertex="1">
          <mxGeometry x="-595" y="280" width="110" height="100" as="geometry" />
        </mxCell>
        <mxCell id="MfT9FiDQWY_UEhDtYRqd-1" value="Finish" style="rounded=1;whiteSpace=wrap;html=1;" vertex="1" parent="WIyWlLk6GJQsqaUBKTNV-1">
          <mxGeometry x="-1030" y="1680" width="120" height="60" as="geometry" />
        </mxCell>
        <mxCell id="MfT9FiDQWY_UEhDtYRqd-2" value="Yes" style="endArrow=classic;html=1;rounded=0;exitX=0;exitY=0.5;exitDx=0;exitDy=0;entryX=0.5;entryY=0;entryDx=0;entryDy=0;" edge="1" parent="WIyWlLk6GJQsqaUBKTNV-1" source="WIyWlLk6GJQsqaUBKTNV-6" target="MfT9FiDQWY_UEhDtYRqd-4">
          <mxGeometry x="-0.6" y="-20" width="50" height="50" relative="1" as="geometry">
            <mxPoint x="-430" y="570" as="sourcePoint" />
            <mxPoint x="-600" y="430" as="targetPoint" />
            <Array as="points">
              <mxPoint x="-740" y="330" />
              <mxPoint x="-740" y="400" />
              <mxPoint x="-540" y="400" />
            </Array>
            <mxPoint as="offset" />
          </mxGeometry>
        </mxCell>
        <mxCell id="MfT9FiDQWY_UEhDtYRqd-13" value="Voyaka&lt;div&gt;&lt;br&gt;&lt;/div&gt;" style="edgeStyle=orthogonalEdgeStyle;rounded=0;orthogonalLoop=1;jettySize=auto;html=1;" edge="1" parent="WIyWlLk6GJQsqaUBKTNV-1" source="MfT9FiDQWY_UEhDtYRqd-4" target="MfT9FiDQWY_UEhDtYRqd-11">
          <mxGeometry x="0.0169" y="-15" relative="1" as="geometry">
            <mxPoint as="offset" />
          </mxGeometry>
        </mxCell>
        <mxCell id="MfT9FiDQWY_UEhDtYRqd-15" value="Chinusha" style="edgeStyle=orthogonalEdgeStyle;rounded=0;orthogonalLoop=1;jettySize=auto;html=1;exitX=1;exitY=0.5;exitDx=0;exitDy=0;" edge="1" parent="WIyWlLk6GJQsqaUBKTNV-1" source="MfT9FiDQWY_UEhDtYRqd-4" target="MfT9FiDQWY_UEhDtYRqd-14">
          <mxGeometry x="0.0169" y="15" relative="1" as="geometry">
            <mxPoint as="offset" />
          </mxGeometry>
        </mxCell>
        <mxCell id="MfT9FiDQWY_UEhDtYRqd-4" value="&#xa;&lt;span style=&quot;color: rgb(0, 0, 0); font-family: Helvetica; font-size: 12px; font-style: normal; font-variant-ligatures: normal; font-variant-caps: normal; font-weight: 400; letter-spacing: normal; orphans: 2; text-align: center; text-indent: 0px; text-transform: none; widows: 2; word-spacing: 0px; -webkit-text-stroke-width: 0px; white-space: normal; background-color: rgb(251, 251, 251); text-decoration-thickness: initial; text-decoration-style: initial; text-decoration-color: initial; display: inline !important; float: none;&quot;&gt;Chose your tamagoji&lt;/span&gt;&#xa;&#xa;" style="rhombus;whiteSpace=wrap;html=1;" vertex="1" parent="WIyWlLk6GJQsqaUBKTNV-1">
          <mxGeometry x="-630" y="430" width="180" height="60" as="geometry" />
        </mxCell>
        <mxCell id="MfT9FiDQWY_UEhDtYRqd-19" style="edgeStyle=orthogonalEdgeStyle;rounded=0;orthogonalLoop=1;jettySize=auto;html=1;entryX=0.5;entryY=0;entryDx=0;entryDy=0;" edge="1" parent="WIyWlLk6GJQsqaUBKTNV-1" source="MfT9FiDQWY_UEhDtYRqd-7" target="MfT9FiDQWY_UEhDtYRqd-18">
          <mxGeometry relative="1" as="geometry" />
        </mxCell>
        <mxCell id="MfT9FiDQWY_UEhDtYRqd-7" value="Call your Ment" style="rounded=1;whiteSpace=wrap;html=1;" vertex="1" parent="WIyWlLk6GJQsqaUBKTNV-1">
          <mxGeometry x="-600" y="530" width="120" height="60" as="geometry" />
        </mxCell>
        <mxCell id="MfT9FiDQWY_UEhDtYRqd-8" value="Ment&lt;div&gt;&lt;br&gt;&lt;/div&gt;" style="endArrow=classic;html=1;rounded=0;exitX=0.5;exitY=1;exitDx=0;exitDy=0;entryX=0.5;entryY=0;entryDx=0;entryDy=0;" edge="1" parent="WIyWlLk6GJQsqaUBKTNV-1" source="MfT9FiDQWY_UEhDtYRqd-4" target="MfT9FiDQWY_UEhDtYRqd-7">
          <mxGeometry x="0.0097" y="21" width="50" height="50" relative="1" as="geometry">
            <mxPoint x="-540" y="540" as="sourcePoint" />
            <mxPoint x="-540" y="570" as="targetPoint" />
            <mxPoint as="offset" />
          </mxGeometry>
        </mxCell>
        <mxCell id="MfT9FiDQWY_UEhDtYRqd-21" style="edgeStyle=orthogonalEdgeStyle;rounded=0;orthogonalLoop=1;jettySize=auto;html=1;entryX=0.5;entryY=0;entryDx=0;entryDy=0;" edge="1" parent="WIyWlLk6GJQsqaUBKTNV-1" source="MfT9FiDQWY_UEhDtYRqd-11" target="MfT9FiDQWY_UEhDtYRqd-20">
          <mxGeometry relative="1" as="geometry" />
        </mxCell>
        <mxCell id="MfT9FiDQWY_UEhDtYRqd-11" value="Call your Voyaka" style="rounded=1;whiteSpace=wrap;html=1;" vertex="1" parent="WIyWlLk6GJQsqaUBKTNV-1">
          <mxGeometry x="-1220" y="530" width="120" height="60" as="geometry" />
        </mxCell>
        <mxCell id="MfT9FiDQWY_UEhDtYRqd-17" style="edgeStyle=orthogonalEdgeStyle;rounded=0;orthogonalLoop=1;jettySize=auto;html=1;entryX=0.5;entryY=0;entryDx=0;entryDy=0;" edge="1" parent="WIyWlLk6GJQsqaUBKTNV-1" source="MfT9FiDQWY_UEhDtYRqd-14" target="MfT9FiDQWY_UEhDtYRqd-16">
          <mxGeometry relative="1" as="geometry" />
        </mxCell>
        <mxCell id="MfT9FiDQWY_UEhDtYRqd-14" value="Call your Chinusha&lt;div&gt;&lt;br&gt;&lt;/div&gt;" style="rounded=1;whiteSpace=wrap;html=1;" vertex="1" parent="WIyWlLk6GJQsqaUBKTNV-1">
          <mxGeometry x="-200" y="580" width="120" height="60" as="geometry" />
        </mxCell>
        <mxCell id="MfT9FiDQWY_UEhDtYRqd-38" style="edgeStyle=orthogonalEdgeStyle;rounded=0;orthogonalLoop=1;jettySize=auto;html=1;" edge="1" parent="WIyWlLk6GJQsqaUBKTNV-1" source="MfT9FiDQWY_UEhDtYRqd-16" target="MfT9FiDQWY_UEhDtYRqd-36">
          <mxGeometry relative="1" as="geometry" />
        </mxCell>
        <mxCell id="MfT9FiDQWY_UEhDtYRqd-16" value="string name" style="rounded=1;whiteSpace=wrap;html=1;" vertex="1" parent="WIyWlLk6GJQsqaUBKTNV-1">
          <mxGeometry x="-175" y="670" width="70" height="20" as="geometry" />
        </mxCell>
        <mxCell id="MfT9FiDQWY_UEhDtYRqd-35" style="edgeStyle=orthogonalEdgeStyle;rounded=0;orthogonalLoop=1;jettySize=auto;html=1;" edge="1" parent="WIyWlLk6GJQsqaUBKTNV-1" source="MfT9FiDQWY_UEhDtYRqd-18" target="MfT9FiDQWY_UEhDtYRqd-34">
          <mxGeometry relative="1" as="geometry" />
        </mxCell>
        <mxCell id="MfT9FiDQWY_UEhDtYRqd-18" value="string name" style="rounded=1;whiteSpace=wrap;html=1;" vertex="1" parent="WIyWlLk6GJQsqaUBKTNV-1">
          <mxGeometry x="-575" y="620" width="70" height="20" as="geometry" />
        </mxCell>
        <mxCell id="MfT9FiDQWY_UEhDtYRqd-23" style="edgeStyle=orthogonalEdgeStyle;rounded=0;orthogonalLoop=1;jettySize=auto;html=1;entryX=0.5;entryY=0;entryDx=0;entryDy=0;" edge="1" parent="WIyWlLk6GJQsqaUBKTNV-1" source="MfT9FiDQWY_UEhDtYRqd-20" target="MfT9FiDQWY_UEhDtYRqd-24">
          <mxGeometry relative="1" as="geometry">
            <mxPoint x="-1160" y="710" as="targetPoint" />
          </mxGeometry>
        </mxCell>
        <mxCell id="MfT9FiDQWY_UEhDtYRqd-20" value="string name" style="rounded=1;whiteSpace=wrap;html=1;" vertex="1" parent="WIyWlLk6GJQsqaUBKTNV-1">
          <mxGeometry x="-1195" y="620" width="70" height="20" as="geometry" />
        </mxCell>
        <mxCell id="MfT9FiDQWY_UEhDtYRqd-29" value="Navy" style="edgeStyle=orthogonalEdgeStyle;rounded=0;orthogonalLoop=1;jettySize=auto;html=1;" edge="1" parent="WIyWlLk6GJQsqaUBKTNV-1" source="MfT9FiDQWY_UEhDtYRqd-24" target="MfT9FiDQWY_UEhDtYRqd-26">
          <mxGeometry relative="1" as="geometry" />
        </mxCell>
        <mxCell id="MfT9FiDQWY_UEhDtYRqd-30" value="Air Force" style="edgeStyle=orthogonalEdgeStyle;rounded=0;orthogonalLoop=1;jettySize=auto;html=1;entryX=0.5;entryY=0;entryDx=0;entryDy=0;" edge="1" parent="WIyWlLk6GJQsqaUBKTNV-1" source="MfT9FiDQWY_UEhDtYRqd-24" target="MfT9FiDQWY_UEhDtYRqd-27">
          <mxGeometry x="0.0316" y="-10" relative="1" as="geometry">
            <mxPoint x="-1550" y="860" as="targetPoint" />
            <mxPoint as="offset" />
          </mxGeometry>
        </mxCell>
        <mxCell id="MfT9FiDQWY_UEhDtYRqd-31" value="Earth Force" style="edgeStyle=orthogonalEdgeStyle;rounded=0;orthogonalLoop=1;jettySize=auto;html=1;exitX=1;exitY=0.5;exitDx=0;exitDy=0;entryX=0.5;entryY=0;entryDx=0;entryDy=0;" edge="1" parent="WIyWlLk6GJQsqaUBKTNV-1" source="MfT9FiDQWY_UEhDtYRqd-24" target="MfT9FiDQWY_UEhDtYRqd-28">
          <mxGeometry x="-0.0105" y="10" relative="1" as="geometry">
            <mxPoint as="offset" />
          </mxGeometry>
        </mxCell>
        <mxCell id="MfT9FiDQWY_UEhDtYRqd-24" value="Chose Rod Voisk" style="rhombus;whiteSpace=wrap;html=1;" vertex="1" parent="WIyWlLk6GJQsqaUBKTNV-1">
          <mxGeometry x="-1240" y="720" width="160" height="40" as="geometry" />
        </mxCell>
        <mxCell id="MfT9FiDQWY_UEhDtYRqd-26" value="int Health = 50&lt;div&gt;int Mood = 75&lt;/div&gt;" style="rounded=1;whiteSpace=wrap;html=1;" vertex="1" parent="WIyWlLk6GJQsqaUBKTNV-1">
          <mxGeometry x="-1220" y="850" width="120" height="60" as="geometry" />
        </mxCell>
        <mxCell id="MfT9FiDQWY_UEhDtYRqd-27" value="int Health = 75&lt;div&gt;int Mood = 50&lt;/div&gt;" style="rounded=1;whiteSpace=wrap;html=1;" vertex="1" parent="WIyWlLk6GJQsqaUBKTNV-1">
          <mxGeometry x="-1620" y="850" width="120" height="60" as="geometry" />
        </mxCell>
        <mxCell id="MfT9FiDQWY_UEhDtYRqd-28" value="int Heath =50&lt;div&gt;int Mood = 50&lt;/div&gt;" style="rounded=1;whiteSpace=wrap;html=1;" vertex="1" parent="WIyWlLk6GJQsqaUBKTNV-1">
          <mxGeometry x="-830" y="850" width="120" height="60" as="geometry" />
        </mxCell>
        <mxCell id="MfT9FiDQWY_UEhDtYRqd-34" value="int Health = 65&lt;div&gt;int Mood = 65&lt;/div&gt;" style="rounded=1;whiteSpace=wrap;html=1;" vertex="1" parent="WIyWlLk6GJQsqaUBKTNV-1">
          <mxGeometry x="-600" y="680" width="120" height="60" as="geometry" />
        </mxCell>
        <mxCell id="MfT9FiDQWY_UEhDtYRqd-42" value="Moskovskay Oblast&#39;" style="edgeStyle=orthogonalEdgeStyle;rounded=0;orthogonalLoop=1;jettySize=auto;html=1;exitX=0;exitY=0.5;exitDx=0;exitDy=0;entryX=0.5;entryY=0;entryDx=0;entryDy=0;" edge="1" parent="WIyWlLk6GJQsqaUBKTNV-1" source="MfT9FiDQWY_UEhDtYRqd-36" target="MfT9FiDQWY_UEhDtYRqd-39">
          <mxGeometry x="-0.0278" y="-15" relative="1" as="geometry">
            <mxPoint as="offset" />
          </mxGeometry>
        </mxCell>
        <mxCell id="MfT9FiDQWY_UEhDtYRqd-43" style="edgeStyle=orthogonalEdgeStyle;rounded=0;orthogonalLoop=1;jettySize=auto;html=1;exitX=0.5;exitY=1;exitDx=0;exitDy=0;" edge="1" parent="WIyWlLk6GJQsqaUBKTNV-1" source="MfT9FiDQWY_UEhDtYRqd-36" target="MfT9FiDQWY_UEhDtYRqd-40">
          <mxGeometry relative="1" as="geometry" />
        </mxCell>
        <mxCell id="MfT9FiDQWY_UEhDtYRqd-45" value="&#xa;&lt;span style=&quot;color: rgb(0, 0, 0); font-family: Helvetica; font-size: 11px; font-style: normal; font-variant-ligatures: normal; font-variant-caps: normal; font-weight: 400; letter-spacing: normal; orphans: 2; text-align: center; text-indent: 0px; text-transform: none; widows: 2; word-spacing: 0px; -webkit-text-stroke-width: 0px; white-space: nowrap; background-color: rgb(255, 255, 255); text-decoration-thickness: initial; text-decoration-style: initial; text-decoration-color: initial; display: inline !important; float: none;&quot;&gt;Stavrapolsky&#39; kray&#39;&lt;/span&gt;&#xa;&#xa;" style="edgeLabel;html=1;align=center;verticalAlign=middle;resizable=0;points=[];" vertex="1" connectable="0" parent="MfT9FiDQWY_UEhDtYRqd-43">
          <mxGeometry x="0.2" y="4" relative="1" as="geometry">
            <mxPoint x="56" y="-6" as="offset" />
          </mxGeometry>
        </mxCell>
        <mxCell id="MfT9FiDQWY_UEhDtYRqd-36" value="Chose Oblast&#39;" style="rhombus;whiteSpace=wrap;html=1;" vertex="1" parent="WIyWlLk6GJQsqaUBKTNV-1">
          <mxGeometry x="-270" y="730" width="260" height="50" as="geometry" />
        </mxCell>
        <mxCell id="MfT9FiDQWY_UEhDtYRqd-39" value="int Health = 50&lt;div&gt;int Mood = 50&lt;/div&gt;&lt;div&gt;iny Rollback = 5&lt;/div&gt;&lt;div&gt;int Banya = 3&lt;/div&gt;" style="rounded=1;whiteSpace=wrap;html=1;" vertex="1" parent="WIyWlLk6GJQsqaUBKTNV-1">
          <mxGeometry x="-533" y="840" width="120" height="90" as="geometry" />
        </mxCell>
        <mxCell id="MfT9FiDQWY_UEhDtYRqd-40" value="&lt;br&gt;&lt;span style=&quot;color: rgb(0, 0, 0); font-family: Helvetica; font-size: 12px; font-style: normal; font-variant-ligatures: normal; font-variant-caps: normal; font-weight: 400; letter-spacing: normal; orphans: 2; text-align: center; text-indent: 0px; text-transform: none; widows: 2; word-spacing: 0px; -webkit-text-stroke-width: 0px; white-space: normal; background-color: rgb(251, 251, 251); text-decoration-thickness: initial; text-decoration-style: initial; text-decoration-color: initial; display: inline !important; float: none;&quot;&gt;int Health = 50&lt;/span&gt;&lt;div style=&quot;forced-color-adjust: none; color: rgb(0, 0, 0); font-family: Helvetica; font-size: 12px; font-style: normal; font-variant-ligatures: normal; font-variant-caps: normal; font-weight: 400; letter-spacing: normal; orphans: 2; text-align: center; text-indent: 0px; text-transform: none; widows: 2; word-spacing: 0px; -webkit-text-stroke-width: 0px; white-space: normal; background-color: rgb(251, 251, 251); text-decoration-thickness: initial; text-decoration-style: initial; text-decoration-color: initial;&quot;&gt;int Mood = 50&lt;/div&gt;&lt;div style=&quot;forced-color-adjust: none; color: rgb(0, 0, 0); font-family: Helvetica; font-size: 12px; font-style: normal; font-variant-ligatures: normal; font-variant-caps: normal; font-weight: 400; letter-spacing: normal; orphans: 2; text-align: center; text-indent: 0px; text-transform: none; widows: 2; word-spacing: 0px; -webkit-text-stroke-width: 0px; white-space: normal; background-color: rgb(251, 251, 251); text-decoration-thickness: initial; text-decoration-style: initial; text-decoration-color: initial;&quot;&gt;iny Rollback = 3&lt;/div&gt;&lt;div style=&quot;forced-color-adjust: none; color: rgb(0, 0, 0); font-family: Helvetica; font-size: 12px; font-style: normal; font-variant-ligatures: normal; font-variant-caps: normal; font-weight: 400; letter-spacing: normal; orphans: 2; text-align: center; text-indent: 0px; text-transform: none; widows: 2; word-spacing: 0px; -webkit-text-stroke-width: 0px; white-space: normal; background-color: rgb(251, 251, 251); text-decoration-thickness: initial; text-decoration-style: initial; text-decoration-color: initial;&quot;&gt;int Banya = 5&lt;/div&gt;&lt;div&gt;&lt;br/&gt;&lt;/div&gt;" style="rounded=1;whiteSpace=wrap;html=1;" vertex="1" parent="WIyWlLk6GJQsqaUBKTNV-1">
          <mxGeometry x="-200" y="840" width="120" height="90" as="geometry" />
        </mxCell>
        <mxCell id="MfT9FiDQWY_UEhDtYRqd-41" value="&lt;br&gt;&lt;span style=&quot;color: rgb(0, 0, 0); font-family: Helvetica; font-size: 12px; font-style: normal; font-variant-ligatures: normal; font-variant-caps: normal; font-weight: 400; letter-spacing: normal; orphans: 2; text-align: center; text-indent: 0px; text-transform: none; widows: 2; word-spacing: 0px; -webkit-text-stroke-width: 0px; white-space: normal; background-color: rgb(251, 251, 251); text-decoration-thickness: initial; text-decoration-style: initial; text-decoration-color: initial; display: inline !important; float: none;&quot;&gt;int Health = 50&lt;/span&gt;&lt;div style=&quot;forced-color-adjust: none; color: rgb(0, 0, 0); font-family: Helvetica; font-size: 12px; font-style: normal; font-variant-ligatures: normal; font-variant-caps: normal; font-weight: 400; letter-spacing: normal; orphans: 2; text-align: center; text-indent: 0px; text-transform: none; widows: 2; word-spacing: 0px; -webkit-text-stroke-width: 0px; white-space: normal; background-color: rgb(251, 251, 251); text-decoration-thickness: initial; text-decoration-style: initial; text-decoration-color: initial;&quot;&gt;int Mood = 50&lt;/div&gt;&lt;div style=&quot;forced-color-adjust: none; color: rgb(0, 0, 0); font-family: Helvetica; font-size: 12px; font-style: normal; font-variant-ligatures: normal; font-variant-caps: normal; font-weight: 400; letter-spacing: normal; orphans: 2; text-align: center; text-indent: 0px; text-transform: none; widows: 2; word-spacing: 0px; -webkit-text-stroke-width: 0px; white-space: normal; background-color: rgb(251, 251, 251); text-decoration-thickness: initial; text-decoration-style: initial; text-decoration-color: initial;&quot;&gt;iny Rollback = 3&lt;/div&gt;&lt;div style=&quot;forced-color-adjust: none; color: rgb(0, 0, 0); font-family: Helvetica; font-size: 12px; font-style: normal; font-variant-ligatures: normal; font-variant-caps: normal; font-weight: 400; letter-spacing: normal; orphans: 2; text-align: center; text-indent: 0px; text-transform: none; widows: 2; word-spacing: 0px; -webkit-text-stroke-width: 0px; white-space: normal; background-color: rgb(251, 251, 251); text-decoration-thickness: initial; text-decoration-style: initial; text-decoration-color: initial;&quot;&gt;int Banya = 3&lt;/div&gt;&lt;div&gt;&lt;br/&gt;&lt;/div&gt;" style="rounded=1;whiteSpace=wrap;html=1;" vertex="1" parent="WIyWlLk6GJQsqaUBKTNV-1">
          <mxGeometry x="130" y="840" width="120" height="90" as="geometry" />
        </mxCell>
        <mxCell id="MfT9FiDQWY_UEhDtYRqd-44" value="" style="edgeStyle=orthogonalEdgeStyle;rounded=0;orthogonalLoop=1;jettySize=auto;html=1;exitX=1;exitY=0.5;exitDx=0;exitDy=0;entryX=0.5;entryY=0;entryDx=0;entryDy=0;" edge="1" parent="WIyWlLk6GJQsqaUBKTNV-1" source="MfT9FiDQWY_UEhDtYRqd-36" target="MfT9FiDQWY_UEhDtYRqd-41">
          <mxGeometry relative="1" as="geometry" />
        </mxCell>
        <mxCell id="MfT9FiDQWY_UEhDtYRqd-46" value="Voronezhskay&#39; Oblast&#39;" style="edgeLabel;html=1;align=center;verticalAlign=middle;resizable=0;points=[];" vertex="1" connectable="0" parent="MfT9FiDQWY_UEhDtYRqd-44">
          <mxGeometry x="-0.0175" y="-4" relative="1" as="geometry">
            <mxPoint as="offset" />
          </mxGeometry>
        </mxCell>
      </root>
    </mxGraphModel>
  </diagram>
</mxfile>
